<mxfile host="app.diagrams.net" modified="2023-12-15T12:19:01.120Z" agent="Mozilla/5.0 (Macintosh; Intel Mac OS X 10_15_7) AppleWebKit/605.1.15 (KHTML, like Gecko) Version/17.1 Safari/605.1.15" version="22.1.9" etag="EBg_vW_Z5bHh0nP8wcP9" type="github">
  <diagram name="Page-1" id="_SyBhIFOfjh_DDNiRt_G">
    <mxGraphModel>
      <root>
        <mxCell id="0" />
        <mxCell id="1" parent="0" />
      </root>
    </mxGraphModel>
  </diagram>
</mxfile>
